<?xml version="1.0" standalone="no"?>
<!DOCTYPE svg PUBLIC "-//W3C//DTD SVG 20010904//EN"
 "http://www.w3.org/TR/2001/REC-SVG-20010904/DTD/svg10.dtd">
<svg version="1.0" xmlns="http://www.w3.org/2000/svg"
 width="3509.000000pt" height="3509.000000pt" viewBox="0 0 3509.000000 3509.000000"
 preserveAspectRatio="xMidYMid meet">
<metadata>
Created by potrace 1.11, written by Peter Selinger 2001-2013
</metadata>
<g transform="translate(0.000000,3509.000000) scale(0.100000,-0.100000)"
fill="#000000" stroke="none">
<path d="M17048 35085 c-2 -2 -88 -6 -193 -10 -104 -4 -210 -8 -235 -10 -25
-1 -101 -6 -170 -10 -69 -3 -141 -8 -160 -10 -19 -2 -82 -6 -140 -10 -57 -4
-111 -8 -120 -10 -8 -1 -55 -6 -103 -10 -49 -3 -98 -8 -110 -10 -12 -2 -58 -6
-101 -10 -43 -4 -86 -8 -95 -10 -13 -2 -67 -8 -176 -20 -23 -2 -142 -17 -165
-20 -14 -2 -45 -6 -70 -10 -76 -9 -116 -15 -240 -34 -36 -5 -85 -13 -110 -16
-40 -5 -106 -16 -187 -30 -16 -3 -48 -8 -73 -11 -25 -3 -48 -8 -51 -10 -4 -2
-31 -6 -60 -10 -30 -3 -57 -8 -60 -10 -4 -2 -24 -6 -45 -10 -22 -3 -120 -21
-219 -41 -204 -40 -195 -38 -255 -52 -25 -5 -56 -12 -70 -15 -14 -2 -59 -12
-100 -21 -41 -9 -84 -18 -95 -21 -19 -4 -302 -71 -335 -79 -122 -31 -342 -88
-400 -105 -41 -11 -85 -23 -96 -25 -40 -9 -669 -199 -734 -222 -8 -3 -80 -28
-160 -55 -174 -59 -353 -122 -435 -153 -33 -13 -127 -48 -210 -80 -82 -31
-159 -60 -170 -65 -11 -5 -55 -23 -98 -40 -114 -44 -441 -183 -602 -255 -280
-125 -393 -179 -705 -335 -243 -121 -309 -155 -445 -230 -33 -18 -87 -47 -120
-65 -139 -75 -173 -94 -223 -124 -29 -17 -55 -31 -58 -31 -2 0 -23 -12 -47
-27 -36 -23 -101 -61 -242 -143 -32 -18 -211 -128 -308 -189 -223 -140 -262
-165 -265 -173 -2 -4 -8 -8 -13 -8 -8 0 -240 -154 -401 -266 -155 -108 -195
-137 -328 -233 -157 -113 -382 -282 -390 -291 -3 -3 -21 -17 -40 -30 -19 -13
-37 -27 -40 -30 -3 -3 -93 -76 -200 -161 -107 -85 -231 -186 -275 -223 -44
-38 -97 -82 -118 -100 -21 -17 -50 -42 -65 -56 -15 -14 -54 -47 -86 -75 -94
-80 -218 -190 -277 -245 -20 -19 -57 -52 -81 -74 -214 -190 -726 -700 -998
-995 -148 -160 -148 -160 -215 -236 -33 -37 -65 -73 -71 -79 -15 -16 -152
-173 -204 -236 -25 -29 -50 -58 -55 -64 -26 -27 -292 -355 -391 -481 -208
-265 -576 -763 -664 -901 -8 -12 -58 -87 -111 -166 -149 -221 -238 -360 -367
-570 -149 -244 -269 -448 -409 -698 -113 -201 -209 -386 -362 -695 -143 -288
-203 -412 -251 -520 -12 -27 -34 -75 -47 -105 -14 -30 -41 -91 -60 -134 -18
-44 -40 -94 -48 -110 -20 -45 -139 -333 -170 -413 -15 -37 -30 -77 -35 -88 -5
-11 -25 -63 -45 -115 -20 -52 -41 -106 -47 -120 -82 -195 -330 -944 -438
-1320 -10 -36 -27 -96 -38 -135 -36 -123 -95 -349 -107 -405 -2 -8 -9 -35 -16
-60 -7 -25 -13 -49 -15 -55 -1 -5 -5 -21 -8 -35 -3 -14 -26 -113 -51 -220 -25
-107 -48 -208 -51 -225 -2 -16 -9 -46 -14 -65 -5 -19 -11 -46 -13 -60 -3 -14
-14 -70 -26 -125 -11 -55 -22 -112 -25 -128 -3 -15 -14 -76 -25 -135 -11 -59
-22 -120 -25 -137 -3 -16 -7 -41 -10 -55 -10 -48 -26 -145 -31 -185 -2 -22 -7
-51 -10 -65 -11 -55 -14 -77 -20 -120 -3 -25 -7 -54 -9 -65 -3 -18 -15 -102
-21 -150 -3 -19 -12 -84 -20 -135 -2 -14 -6 -50 -10 -80 -3 -30 -8 -71 -11
-90 -6 -50 -14 -118 -19 -170 -2 -25 -7 -61 -10 -80 -2 -19 -7 -66 -10 -105
-4 -38 -8 -86 -10 -105 -3 -19 -7 -66 -10 -105 -3 -38 -8 -90 -10 -114 -3 -24
-8 -85 -11 -135 -3 -50 -7 -111 -9 -136 -2 -25 -7 -97 -10 -160 -4 -63 -8
-144 -10 -180 -23 -377 -23 -1323 0 -1695 2 -33 6 -112 10 -175 3 -63 7 -142
10 -175 2 -33 7 -98 10 -145 3 -47 8 -101 10 -120 2 -19 7 -71 10 -115 3 -44
7 -96 10 -115 2 -19 6 -62 10 -95 3 -33 7 -76 10 -95 2 -19 7 -62 10 -94 3
-33 8 -73 10 -90 2 -17 9 -74 15 -126 6 -52 13 -106 15 -120 2 -14 6 -43 9
-65 14 -101 47 -333 52 -355 3 -14 7 -41 10 -60 2 -19 6 -46 9 -60 3 -14 7
-41 10 -60 5 -31 16 -95 30 -180 58 -332 233 -1138 278 -1275 3 -11 8 -31 11
-45 5 -26 94 -356 120 -445 123 -417 175 -576 340 -1055 89 -258 313 -823 407
-1028 16 -35 29 -65 29 -67 0 -9 140 -317 242 -535 51 -108 260 -526 303 -605
18 -33 54 -100 80 -150 163 -306 579 -1017 635 -1082 5 -7 10 -15 10 -18 0 -4
17 -32 38 -63 22 -32 100 -149 175 -262 74 -113 166 -249 204 -302 37 -53 81
-116 98 -140 86 -124 420 -570 492 -658 7 -8 44 -55 84 -105 421 -530 845
-1003 1350 -1505 146 -146 293 -290 325 -320 178 -166 304 -281 339 -311 22
-19 60 -53 85 -75 25 -23 63 -57 85 -75 22 -19 42 -36 45 -39 3 -3 37 -32 75
-65 39 -33 72 -63 75 -66 16 -19 506 -415 605 -489 33 -25 62 -48 65 -51 7 -8
383 -287 445 -330 28 -19 52 -37 55 -40 16 -19 518 -358 745 -503 50 -31 125
-79 167 -107 43 -27 82 -49 88 -49 5 0 10 -3 10 -8 0 -4 9 -12 20 -17 11 -6
84 -48 163 -95 78 -47 151 -90 162 -96 11 -6 39 -22 62 -37 24 -15 44 -27 46
-27 2 0 44 -23 93 -51 49 -29 113 -65 142 -80 118 -65 169 -93 212 -117 83
-45 663 -337 787 -395 105 -49 204 -95 403 -184 214 -97 663 -279 930 -378 85
-31 164 -60 175 -65 55 -23 664 -230 689 -234 12 -2 91 -27 166 -51 25 -9 54
-17 65 -20 11 -3 115 -32 230 -65 180 -52 698 -189 775 -204 14 -3 84 -18 155
-35 150 -34 432 -94 550 -116 119 -22 528 -94 560 -99 65 -8 115 -16 205 -31
47 -8 112 -17 145 -20 61 -7 101 -12 145 -20 14 -2 45 -6 70 -9 25 -3 83 -10
130 -15 47 -6 110 -13 140 -16 30 -3 71 -7 90 -10 19 -3 60 -8 90 -10 30 -3
75 -7 100 -9 25 -3 81 -7 125 -11 44 -3 96 -8 115 -10 31 -3 149 -12 275 -20
22 -2 103 -6 180 -10 77 -4 163 -9 190 -11 86 -5 623 -16 790 -17 150 0 664
12 785 18 259 13 496 28 630 40 30 3 82 8 115 10 138 12 241 21 315 30 19 2
60 7 90 10 30 3 71 8 90 10 19 3 60 7 90 10 30 3 87 10 125 15 39 6 122 17
185 26 63 8 126 17 140 19 14 3 70 11 125 19 123 19 171 26 199 32 23 4 183
32 231 40 17 3 86 16 155 29 69 13 141 27 160 30 39 7 175 36 420 90 8 2 49
11 90 20 41 9 82 18 90 20 8 2 98 24 200 50 102 26 194 49 204 51 10 2 33 8
51 14 18 6 43 13 56 15 25 5 115 30 274 77 55 16 107 31 115 33 86 19 781 244
990 322 300 110 385 143 585 223 274 110 561 232 765 327 41 19 116 53 165 76
294 135 912 456 1214 629 565 324 1192 729 1617 1043 22 16 78 57 124 90 46
33 88 65 94 70 6 6 65 50 131 100 222 166 698 553 852 692 17 15 44 39 60 52
69 59 105 91 319 286 314 286 774 746 1064 1064 14 15 45 50 70 77 25 27 81
90 125 139 43 50 81 92 85 95 13 11 323 379 390 463 8 11 20 24 25 31 6 6 26
31 45 56 19 25 40 51 47 57 22 24 362 465 433 564 145 200 482 684 491 704 2
6 40 64 83 130 138 210 257 399 361 577 5 10 40 68 76 130 37 62 77 131 89
153 65 114 162 289 198 358 23 42 60 110 81 150 53 98 291 573 336 672 21 44
54 116 75 160 46 98 66 142 120 265 23 52 48 109 55 125 37 80 176 422 246
605 44 113 88 228 98 255 106 271 313 905 416 1270 25 88 49 176 55 195 25 89
53 200 95 370 25 102 52 212 60 245 8 33 17 71 19 85 3 14 7 34 10 45 11 42
88 401 101 470 17 92 45 243 49 260 2 11 7 40 12 65 4 25 8 47 9 50 1 6 17
100 20 120 2 8 5 33 9 55 3 22 8 49 10 60 2 11 7 40 10 65 3 25 8 56 11 69 2
12 6 42 9 65 3 22 12 86 20 141 8 55 18 124 21 154 4 30 8 61 10 70 1 9 6 45
10 81 3 36 8 76 10 90 2 14 6 50 10 80 3 30 8 71 10 90 3 19 7 64 10 100 4 36
8 76 10 90 2 14 7 68 10 120 4 52 9 102 10 110 2 8 6 62 10 120 3 58 8 121 10
140 2 19 6 96 10 170 4 74 9 153 10 175 24 388 24 1313 0 1760 -8 149 -15 263
-20 330 -3 39 -8 106 -10 150 -3 44 -7 96 -10 115 -5 39 -12 109 -20 220 -3
41 -8 86 -10 100 -2 14 -7 61 -10 105 -4 44 -8 82 -10 85 -2 3 -6 35 -9 70 -4
36 -8 76 -10 90 -3 14 -7 50 -11 81 -3 31 -7 65 -9 75 -2 11 -7 45 -11 78 -3
32 -8 68 -10 80 -2 11 -9 57 -15 101 -12 83 -16 109 -24 160 -13 78 -77 453
-82 480 -30 163 -66 348 -74 380 -5 22 -14 63 -19 90 -6 28 -32 140 -57 250
-25 110 -47 207 -49 215 -2 8 -15 62 -30 120 -27 104 -31 121 -39 160 -3 11
-7 24 -10 28 -3 5 -7 19 -9 33 -12 60 -113 420 -182 644 -20 66 -38 127 -40
135 -5 18 -106 323 -169 506 -120 350 -394 1048 -506 1289 -10 22 -37 81 -58
130 -22 50 -59 131 -82 180 -46 100 -421 852 -448 900 -9 17 -38 68 -63 115
-26 47 -57 103 -69 125 -13 22 -34 60 -48 85 -36 65 -131 230 -153 265 -10 17
-22 37 -26 45 -8 18 -184 309 -217 360 -13 19 -58 91 -102 160 -127 202 -368
559 -493 732 -31 42 -63 86 -71 99 -38 56 -388 519 -476 630 -96 120 -451 548
-514 619 -17 19 -55 62 -83 94 -29 33 -61 70 -72 82 -11 12 -33 37 -50 55
-267 303 -701 744 -1110 1128 -70 66 -250 227 -430 386 -44 39 -433 364 -484
405 -24 19 -58 47 -75 61 -90 75 -497 385 -630 479 -43 30 -83 60 -89 65 -7 6
-48 35 -92 65 -44 30 -82 58 -85 61 -10 12 -497 336 -670 446 -157 99 -365
227 -445 273 -16 10 -113 65 -214 124 -101 58 -185 106 -187 106 -2 0 -25 13
-51 28 -26 16 -97 55 -158 87 -60 32 -126 67 -145 78 -55 31 -554 280 -665
332 -328 154 -381 178 -675 302 -715 304 -1475 567 -2210 766 -153 41 -210 56
-235 63 -5 1 -64 16 -130 32 -66 17 -131 33 -145 36 -14 3 -70 16 -125 29 -55
14 -118 28 -140 33 -22 4 -42 8 -45 9 -3 0 -23 5 -45 10 -22 4 -44 9 -50 11
-9 3 -46 10 -225 47 -97 20 -275 55 -320 62 -19 3 -71 12 -115 20 -44 7 -97
16 -119 20 -21 3 -41 7 -45 9 -3 2 -35 7 -71 11 -36 4 -68 9 -71 11 -3 2 -24
6 -45 8 -39 5 -99 14 -140 21 -12 2 -48 7 -80 10 -33 4 -68 9 -79 11 -11 2
-74 11 -140 19 -66 8 -138 17 -160 20 -22 3 -83 10 -135 15 -52 6 -113 12
-135 15 -37 4 -108 11 -195 20 -19 2 -73 6 -120 10 -47 3 -101 8 -120 10 -30
3 -124 10 -285 20 -22 2 -112 6 -200 10 -88 5 -182 10 -210 11 -60 5 -1193 13
-1197 9z"/>
</g>
</svg>
